<?xml version="1.0" encoding="UTF-8"?>
<svg width="512" height="512" viewBox="0 0 512 512" xmlns="http://www.w3.org/2000/svg">
  <defs>
    <linearGradient id="lightGradient" x1="0%" y1="0%" x2="100%" y2="100%">
      <stop offset="0%" style="stop-color:#FFFFFF;stop-opacity:1" />
      <stop offset="100%" style="stop-color:#F8FAFC;stop-opacity:1" />
    </linearGradient>
  </defs>
  
  <g transform="translate(256, 256)">
    <g transform="translate(-80, -40)">
      <path d="M 20 -60 L 60 0 L 100 -40 L 120 -20 L 80 20 L 120 60 L 100 80 L 60 40 L 20 80 L 0 60 L 40 20 L 0 -20 Z" 
            fill="url(#lightGradient)"/>
      
      <path d="M 85 -35 L 115 -35 L 115 -50 L 130 -30 L 115 -10 L 115 -25 L 85 -25 Z" 
            fill="#FFFFFF" 
            opacity="0.9"/>
    </g>
    
    <g transform="translate(-120, 80)">
      <text x="0" y="0" 
            font-family="Arial, sans-serif" 
            font-size="48" 
            font-weight="700" 
            fill="#FFFFFF">Trend</text>
      
      <text x="140" y="0" 
            font-family="Arial, sans-serif" 
            font-size="52" 
            font-weight="800" 
            fill="#FFFFFF">X</text>
    </g>
    
    <g opacity="0.6">
      <circle cx="-100" cy="-80" r="2" fill="#FFFFFF"/>
      <circle cx="100" cy="-60" r="1.5" fill="#F8FAFC"/>
      <circle cx="-80" cy="100" r="2.5" fill="#FFFFFF"/>
      <path d="M -90 90 L -80 80 L -70 85 L -60 70 L -50 75" 
            stroke="#FFFFFF" 
            stroke-width="2" 
            fill="none"/>
    </g>
  </g>
</svg>